<svg xmlns="http://www.w3.org/2000/svg" viewBox="0 0 278.43 71.07"><defs><style>.cls-1{fill:none;}.cls-2{fill:#232931;}.cls-3{fill:#3cddaa;}.cls-4{fill:#3c8d84;}</style></defs><g id="레이어_2" data-name="레이어 2"><g id="레이어_2-2" data-name="레이어 2"><path class="cls-1" d="M183.63,31.53a9.12,9.12,0,0,0-8.91,5.93H192A8.21,8.21,0,0,0,183.63,31.53Z"/><path class="cls-1" d="M123.47,58c5.36,0,9.41-2.62,11.43-6.75H112.34A11.76,11.76,0,0,0,123.47,58Z"/><path class="cls-1" d="M40.69,13.8H29.63V37.45H40.69c9.08,0,14.57-4.12,14.57-11.91S49.77,13.8,40.69,13.8Z"/><path class="cls-1" d="M123.47,31.45a11.74,11.74,0,0,0-10.73,6H134.5A12.19,12.19,0,0,0,123.47,31.45Z"/><path class="cls-2" d="M71.63,25.54C71.63,10.11,60.48,0,41.41,0H13.26V37.46H69A26.15,26.15,0,0,0,71.63,25.54ZM40.69,37.45H29.63V13.8H40.69c9.08,0,14.57,4,14.57,11.74S49.77,37.45,40.69,37.45Z"/><rect class="cls-2" x="13.26" y="51.26" width="16.37" height="18.58"/><rect class="cls-2" x="75.49" y="0.1" width="16.01" height="37.36"/><rect class="cls-2" x="75.49" y="51.26" width="16.01" height="18.58"/><path class="cls-2" d="M123.47,31.45a12.19,12.19,0,0,1,11,6h17.57V19.62h-16v5.14c-3.15-4-8.19-6.34-15.11-6.34-12.58,0-22,7.67-24.77,19h16.56A11.74,11.74,0,0,1,123.47,31.45Z"/><path class="cls-2" d="M123.47,58a11.76,11.76,0,0,1-11.13-6.75H96C98.57,63,108.1,71,121,71c6.92,0,12-2.32,15.11-6.34v5.14h16V51.26H134.9C132.88,55.39,128.83,58,123.47,58Z"/><rect class="cls-2" x="157.55" y="51.26" width="16.01" height="18.58"/><rect class="cls-2" x="192.89" y="51.26" width="16.01" height="18.58"/><path class="cls-2" d="M183.63,31.53a8.21,8.21,0,0,1,8.4,5.93h16.68c-1.25-11.89-9.19-19-20.41-19-6.74,0-11.6,2.32-14.75,6.34V19.62h-16V37.46h17.17A9.12,9.12,0,0,1,183.63,31.53Z"/><path class="cls-3" d="M96.18,37.46H91.5v13.8H96a31.2,31.2,0,0,1,.17-13.8Z"/><rect class="cls-3" x="152.07" y="37.46" width="5.48" height="13.8"/><path class="cls-3" d="M192,37.46H174.72a17.18,17.18,0,0,0-1.17,6.59v7.21h19.34v-7.9A18.41,18.41,0,0,0,192,37.46Z"/><path class="cls-3" d="M222.32,37.46H208.71a32.6,32.6,0,0,1,.19,3.33V51.26h13.42Z"/><rect class="cls-3" y="37.46" width="13.26" height="13.8"/><path class="cls-3" d="M69,37.46C64.6,46.09,55,51.24,41.41,51.24H29.63v0H75.49V37.46Z"/><path class="cls-3" d="M111,44.73a15.31,15.31,0,0,0,1.37,6.53H134.9a14.75,14.75,0,0,0,1.43-6.53,14.47,14.47,0,0,0-1.83-7.27H112.74A14.76,14.76,0,0,0,111,44.73Z"/><path class="cls-4" d="M41.41,51.24C55,51.24,64.6,46.09,69,37.46H13.26v13.8H29.63v0Z"/><rect class="cls-4" x="75.49" y="37.46" width="16.01" height="13.8"/><path class="cls-4" d="M111,44.73a14.76,14.76,0,0,1,1.77-7.27H96.18A31.2,31.2,0,0,0,96,51.26h16.33A15.31,15.31,0,0,1,111,44.73Z"/><path class="cls-4" d="M134.5,37.46a14.47,14.47,0,0,1,1.83,7.27,14.75,14.75,0,0,1-1.43,6.53h17.17V37.46Z"/><path class="cls-4" d="M208.71,37.46H192a18.41,18.41,0,0,1,.86,5.9v7.9h16V40.79A32.6,32.6,0,0,0,208.71,37.46Z"/><path class="cls-4" d="M174.72,37.46H157.55v13.8h16V44.05A17.18,17.18,0,0,1,174.72,37.46Z"/><path class="cls-3" d="M278.43,14.93H252.09V71.07H234V14.93H207.65V1.1h70.78Z"/></g></g></svg>