<svg xmlns="http://www.w3.org/2000/svg" viewBox="0 0 294.57 92.5"><defs><style>.cls-1{fill:#3cddaa;}.cls-2{fill:#232931;}</style></defs><g id="레이어_2" data-name="레이어 2"><circle class="cls-1" cx="22.4" cy="22.7" r="21.7"/><path class="cls-2" d="M22.4,21.46H50.55c19.06,0,30.22,10.11,30.22,25.54,0,15.6-11.16,25.71-30.22,25.71H38.77V91.3H22.4ZM49.83,58.91C58.91,58.91,64.4,54.8,64.4,47S58.91,35.26,49.83,35.26H38.77V58.91Z"/><path class="cls-2" d="M100.64,91.3h-16V21.57h16Z"/><path class="cls-2" d="M104.46,66.19c0-15.25,10.52-26.3,25.63-26.3,6.92,0,12,2.31,15.11,6.34V41.09h16V91.3h-16V86.16c-3.15,4-8.19,6.34-15.11,6.34C115,92.5,104.46,81.45,104.46,66.19Zm41,0c0-7.71-5-13.28-12.87-13.28-7.64,0-12.5,5.57-12.5,13.28S125,79.48,132.6,79.48C140.43,79.48,145.47,73.91,145.47,66.19Z"/><path class="cls-2" d="M166.68,41.09h16v5.14c3.15-4,8-6.34,14.75-6.34,12.23,0,20.6,8.48,20.6,22.36V91.3H202V64.82C202,57.2,198.79,53,192.76,53c-6.29,0-10.07,4.71-10.07,12.51V91.3h-16Z"/><path class="cls-1" d="M294.57,28.85H265.31V92.53H245.22V28.85H216V13.17h78.61Z"/></g></svg>